<svg viewBox="0 0 260.01 191.81" xmlns="http://www.w3.org/2000/svg"><g transform="translate(4 187.814)"><ellipse cx="62.505" cy="-164.011" fill="#fff" rx="19.608" ry="19.608" stroke="#000" stroke-width="1.5"/><text font-family="Source Code Pro,Ubuntu Mono,DejaVu Sans Mono,monospace" font-size="18" text-anchor="middle" x="62.505" y="-158.611">A</text></g><g transform="translate(4 187.814)"><ellipse cx="20.505" cy="-115.703" fill="#fff" rx="20.511" ry="20.511" stroke="#000" stroke-width="1.5"/><text font-family="Source Code Pro,Ubuntu Mono,DejaVu Sans Mono,monospace" font-size="18" text-anchor="middle" x="20.505" y="-110.303">C</text></g><g stroke="#000" stroke-width=".75"><path d="m53.447 38.823-10.422 11.987" fill="none"/><path d="m44.893 52.662-6.902 3.938 2.94-7.382z"/></g><g transform="translate(4 187.814)"><ellipse cx="104.505" cy="-115.703" fill="#fff" rx="20.511" ry="20.511" stroke="#000" stroke-width="1.5"/><text font-family="Source Code Pro,Ubuntu Mono,DejaVu Sans Mono,monospace" font-size="18" text-anchor="middle" x="104.505" y="-110.303">D</text></g><g stroke="#000" stroke-width=".75"><path d="m79.564 38.823 10.422 11.987" fill="none"/><path d="m92.08 49.218 2.94 7.382-6.902-3.938 3.962-3.445z"/></g><g transform="translate(4 187.814)"><ellipse cx="63.505" cy="-65.983" fill="#fff" rx="19.177" ry="19.177" stroke="#000" stroke-width="1.5"/><text font-family="Source Code Pro,Ubuntu Mono,DejaVu Sans Mono,monospace" font-size="18" text-anchor="middle" x="63.505" y="-60.583">F</text></g><g stroke="#000" stroke-width=".75"><path d="m95.307 88.116-10.47 12.696" fill="none"/><path d="m86.64 102.753-6.797 4.116 2.747-7.457 4.05 3.34z"/></g><g transform="translate(4 187.814)"><ellipse cx="146.505" cy="-65.983" fill="#fff" rx="21.43" ry="21.43" stroke="#000" stroke-width="1.5"/><text font-family="Source Code Pro,Ubuntu Mono,DejaVu Sans Mono,monospace" font-size="18" text-anchor="middle" x="146.505" y="-60.583">G</text></g><g stroke="#000" stroke-width=".75"><path d="m121.794 87.843 9.725 11.512" fill="none"/><path d="m133.744 97.92 2.834 7.424-6.845-4.036 4.01-3.388z"/></g><g transform="translate(4 187.814)"><ellipse cx="145.505" cy="-164.011" fill="#fff" rx="19.608" ry="19.608" stroke="#000" stroke-width="1.5"/><text font-family="Source Code Pro,Ubuntu Mono,DejaVu Sans Mono,monospace" font-size="18" text-anchor="middle" x="145.505" y="-158.611">B</text></g><g stroke="#000" stroke-width=".75"><path d="m136.533 39.088-9.69 11.417" fill="none"/><path d="m128.671 52.407-6.854 4.02 2.852-7.417z"/></g><g transform="translate(4 187.814)"><ellipse cx="187.505" cy="-115.703" fill="#fff" rx="19.608" ry="19.608" stroke="#000" stroke-width="1.5"/><text font-family="Source Code Pro,Ubuntu Mono,DejaVu Sans Mono,monospace" font-size="18" text-anchor="middle" x="187.505" y="-110.303">E</text></g><g stroke="#000" stroke-width=".75"><path d="m162.564 38.823 10.628 12.225" fill="none"/><path d="m175.37 49.552 2.94 7.382-6.902-3.938z"/></g><g transform="translate(4 187.814)"><ellipse cx="188.505" cy="-18.385" fill="#fff" rx="18.27" ry="18.27" stroke="#000" stroke-width="1.5"/><text font-family="Source Code Pro,Ubuntu Mono,DejaVu Sans Mono,monospace" font-size="18" text-anchor="middle" x="188.505" y="-12.985">I</text></g><g stroke="#000" stroke-width=".75"><path d="m164.725 137.945 10.552 11.959" fill="none"/><path d="m177.272 148.197 2.994 7.36-6.931-3.886z"/></g><g transform="translate(4 187.814)"><ellipse cx="231.505" cy="-65.983" fill="#fff" rx="20.511" ry="20.511" stroke="#000" stroke-width="1.5"/><text font-family="Source Code Pro,Ubuntu Mono,DejaVu Sans Mono,monospace" font-size="18" text-anchor="middle" x="231.505" y="-60.583">H</text></g><g stroke="#000" stroke-width=".75"><path d="m221.663 137.154-11.66 12.907" fill="none"/><path d="m211.844 151.938-6.975 3.805 3.08-7.325z"/></g></svg>